<svg width="24" height="24" viewBox="0 0 24 24" fill="none" xmlns="http://www.w3.org/2000/svg">
<g id="icon-edit">
<path id="Vector" d="M10 15C9.71667 15 9.47933 14.904 9.288 14.712C9.09667 14.52 9.00067 14.2827 9 14V11.575C9 11.3083 9.05 11.054 9.15 10.812C9.25 10.57 9.39167 10.3577 9.575 10.175L18.175 1.575C18.375 1.375 18.6 1.225 18.85 1.125C19.1 1.025 19.35 0.974998 19.6 0.974998C19.8667 0.974998 20.121 1.025 20.363 1.125C20.605 1.225 20.8257 1.375 21.025 1.575L22.425 3C22.6083 3.2 22.75 3.421 22.85 3.663C22.95 3.905 23 4.15067 23 4.4C23 4.64933 22.9543 4.89533 22.863 5.138C22.7717 5.38067 22.6257 5.60133 22.425 5.8L13.825 14.4C13.6417 14.5833 13.4293 14.7293 13.188 14.838C12.9467 14.9467 12.6923 15.0007 12.425 15H10ZM19.6 5.8L21.025 4.4L19.625 3L18.2 4.4L19.6 5.8ZM5 21C4.45 21 3.97933 20.8043 3.588 20.413C3.19667 20.0217 3.00067 19.5507 3 19V5C3 4.45 3.196 3.97933 3.588 3.588C3.98 3.19667 4.45067 3.00067 5 3H11.5C11.7333 3 11.925 3.05833 12.075 3.175C12.225 3.29166 12.3417 3.44167 12.425 3.625C12.5083 3.80833 12.5373 3.99167 12.512 4.175C12.4867 4.35833 12.391 4.53333 12.225 4.7L7.575 9.35C7.39167 9.53333 7.25 9.746 7.15 9.988C7.05 10.23 7 10.484 7 10.75V15C7 15.55 7.196 16.0207 7.588 16.412C7.98 16.8033 8.45067 16.9993 9 17H13.225C13.4917 17 13.746 16.95 13.988 16.85C14.23 16.75 14.4423 16.6083 14.625 16.425L19.3 11.75C19.4667 11.5833 19.6417 11.4873 19.825 11.462C20.0083 11.4367 20.1917 11.466 20.375 11.55C20.5583 11.634 20.7083 11.7507 20.825 11.9C20.9417 12.0493 21 12.241 21 12.475V19C21 19.55 20.8043 20.021 20.413 20.413C20.0217 20.805 19.5507 21.0007 19 21H5Z" fill="#1F1F1F"/>
</g>
</svg>
