<svg width="24" height="24" viewBox="0 0 24 24" fill="none" xmlns="http://www.w3.org/2000/svg">
<g id="icon-show">
<path id="Vector" d="M11.8572 6.57153C14.6172 6.57153 16.8572 8.81153 16.8572 11.5715C16.8572 12.2215 16.7272 12.8315 16.4972 13.4015L19.4172 16.3215C20.9272 15.0615 22.1172 13.4315 22.8472 11.5715C21.1172 7.18153 16.8472 4.07153 11.8472 4.07153C10.4472 4.07153 9.10718 4.32153 7.86718 4.77153L10.0272 6.93153C10.5972 6.70153 11.2072 6.57153 11.8572 6.57153ZM1.85718 3.84153L4.13718 6.12153L4.59718 6.58153C2.92574 7.87954 1.634 9.60302 0.857178 11.5715C2.58718 15.9615 6.85718 19.0715 11.8572 19.0715C13.4072 19.0715 14.8872 18.7715 16.2372 18.2315L16.6572 18.6515L19.5872 21.5715L20.8572 20.3015L3.12718 2.57153L1.85718 3.84153ZM7.38718 9.37153L8.93718 10.9215C8.88718 11.1315 8.85718 11.3515 8.85718 11.5715C8.85718 13.2315 10.1972 14.5715 11.8572 14.5715C12.0772 14.5715 12.2972 14.5415 12.5072 14.4915L14.0572 16.0415C13.3872 16.3715 12.6472 16.5715 11.8572 16.5715C9.09718 16.5715 6.85718 14.3315 6.85718 11.5715C6.85718 10.7815 7.05718 10.0415 7.38718 9.37153ZM11.6972 8.59153L14.8472 11.7415L14.8672 11.5815C14.8672 9.92153 13.5272 8.58153 11.8672 8.58153L11.6972 8.59153Z" fill="#1F1F1F"/>
</g>
</svg>
