<svg width="24" height="24" viewBox="0 0 24 24" fill="none" xmlns="http://www.w3.org/2000/svg">
<g id="icon-pass">
<path id="Vector" d="M12 10C12.8333 10 13.5417 9.70833 14.125 9.125C14.7083 8.54167 15 7.83333 15 7C15 6.16667 14.7083 5.45833 14.125 4.875C13.5417 4.29167 12.8333 4 12 4C11.1667 4 10.4583 4.29167 9.875 4.875C9.29167 5.45833 9 6.16667 9 7C9 7.83333 9.29167 8.54167 9.875 9.125C10.4583 9.70833 11.1667 10 12 10ZM12.025 22.625C11.8917 22.625 11.7667 22.6043 11.65 22.563C11.5333 22.5217 11.425 22.459 11.325 22.375L8.75 20.125C8.65 20.0417 8.57067 19.9457 8.512 19.837C8.45333 19.7283 8.416 19.6077 8.4 19.475C8.384 19.3423 8.39667 19.2133 8.438 19.088C8.47933 18.9627 8.54167 18.85 8.625 18.75L10 17L8.7 15.7C8.6 15.6 8.529 15.4917 8.487 15.375C8.445 15.2583 8.42467 15.1333 8.426 15C8.42733 14.8667 8.448 14.7417 8.488 14.625C8.528 14.5083 8.599 14.4 8.701 14.3L10 13V12.65C8.8 12.2333 7.83333 11.5083 7.1 10.475C6.36667 9.44167 6 8.28333 6 7C6 5.33333 6.58333 3.91667 7.75 2.75C8.91667 1.58333 10.3333 1 12 1C13.6667 1 15.0833 1.58333 16.25 2.75C17.4167 3.91667 18 5.33333 18 7C18 8.35 17.6167 9.52933 16.85 10.538C16.0833 11.5467 15.1333 12.2507 14 12.65V20.6C14 20.7333 13.975 20.8627 13.925 20.988C13.875 21.1133 13.8 21.2257 13.7 21.325L12.675 22.35C12.5917 22.4333 12.4957 22.5 12.387 22.55C12.2783 22.6 12.1577 22.625 12.025 22.625Z" fill="#1F1F1F"/>
</g>
</svg>
